<?xml version="1.0" encoding="UTF-8"?>
<!DOCTYPE svg PUBLIC "-//W3C//DTD SVG 1.1//EN" "http://www.w3.org/Graphics/SVG/1.1/DTD/svg11.dtd">
<!-- Creator: CorelDRAW -->
<svg xmlns="http://www.w3.org/2000/svg" xml:space="preserve" width="101.335mm" height="162.307mm" version="1.1" style="shape-rendering:geometricPrecision; text-rendering:geometricPrecision; image-rendering:optimizeQuality; fill-rule:evenodd; clip-rule:evenodd"
viewBox="0 0 154.29 247.13"
 xmlns:xlink="http://www.w3.org/1999/xlink"
 xmlns:xodm="http://www.corel.com/coreldraw/odm/2003">
 <defs>
  <style type="text/css">
   <![CDATA[
    .str1 {stroke:#00A859;stroke-width:0.3;stroke-miterlimit:22.9256}
    .str0 {stroke:#00A859;stroke-width:0.3;stroke-linecap:round;stroke-miterlimit:22.9256}
    .fil6 {fill:none}
    .fil7 {fill:#00A859}
    .fil0 {fill:#2F2E41;fill-rule:nonzero}
    .fil1 {fill:#3F3D56;fill-rule:nonzero}
    .fil5 {fill:#CACACA;fill-rule:nonzero}
    .fil4 {fill:#E4E4E4;fill-rule:nonzero}
    .fil2 {fill:#E6C9B2;fill-rule:nonzero}
    .fil3 {fill:#FFB6B6;fill-rule:nonzero}
   ]]>
  </style>
 </defs>
 <g id="Capa_x0020_1">
  <metadata id="CorelCorpID_0Corel-Layer"/>
  <rect class="fil0" x="67.86" y="33.62" width="30.62" height="18.13"/>
  <path class="fil1" d="M37.53 36.54l-15.79 0 0 -5.5c0,-4.36 3.53,-7.89 7.89,-7.89 4.36,0 7.89,3.53 7.89,7.89l0 5.5zm-15.44 -0.35l15.09 0 0 -5.16c-0,-4.17 -3.38,-7.54 -7.54,-7.54 -4.17,0 -7.54,3.38 -7.54,7.54l0 5.15z"/>
  <polygon class="fil1" points="45.33,35.78 45.33,33.63 5.19,34.71 3.92,89.2 9.86,96.53 "/>
  <polygon class="fil2" points="52.44,35.02 8.93,36.01 9.86,96.53 51.85,92.01 "/>
  <polygon class="fil3" points="89.43,231.11 84.49,231.11 82.14,212.06 89.43,212.06 "/>
  <path class="fil0" d="M90.69 235.89l-15.93 -0 0 -0.2c0,-3.42 2.78,-6.2 6.2,-6.2l0 0 9.73 0 -0 6.4z"/>
  <polygon class="fil3" points="71.3,231.11 66.36,231.11 64.02,212.06 71.3,212.06 "/>
  <path class="fil0" d="M72.56 235.89l-15.93 -0 0 -0.2c-0,-3.42 2.78,-6.2 6.2,-6.2l0 0 9.73 0 -0 6.4z"/>
  <path class="fil0" d="M56.8 111.82c0,0 -7.22,15.54 -0.7,46.82 6.52,31.28 6.57,65.62 6.57,65.62l9.97 0.16 5.6 -73.93 2.93 72.89 9.82 0 8.65 -71.74c0,0 5.7,-32.03 -7.01,-37.77l-35.85 -2.06z"/>
  <path class="fil4" d="M91.34 56.98l-21.83 -2.01 0 0c-6.84,4.99 -10.69,13.95 -9.9,23.19 1.07,12.53 0.71,29.78 -7.87,37.28 0,0 23.39,18.46 44.16,0.95 0,0 -7.1,-19.03 -2.23,-26.63 4.88,-7.6 6.64,-28.95 -2.34,-32.78z"/>
  <path class="fil3" d="M26.4 26.01c-0.02,0.15 -0.02,0.31 -0.02,0.46 0,2.39 1.94,4.33 4.33,4.33 0.1,0 0.2,-0 0.3,-0.01l28.82 26.89 5.16 -7.87 -29.95 -23.96c-0.3,-2.15 -2.14,-3.76 -4.31,-3.76 -2.24,0 -4.11,1.7 -4.33,3.92l-0 0z"/>
  <path class="fil4" d="M54.44 53.52l6.84 -7.02c0.36,-0.37 0.87,-0.59 1.39,-0.59 0.61,0 1.18,0.28 1.54,0.76l5.93 7.77c1.03,1.01 1.61,2.4 1.61,3.84 0,2.98 -2.41,5.39 -5.39,5.39 -1.4,0 -2.75,-0.55 -3.76,-1.53l-7.9 -5.7c-0.51,-0.36 -0.81,-0.95 -0.81,-1.57 0,-0.51 0.2,-0.99 0.55,-1.35l0 0z"/>
  <path class="fil3" d="M133.46 91.5c0,-0.07 0.01,-0.15 0.01,-0.22 0,-2.39 -1.94,-4.33 -4.33,-4.33 -0.18,0 -0.36,0.01 -0.54,0.03l-30.27 -25.25 -4.72 8.14 31.24 22.26c0.4,2.04 2.19,3.52 4.27,3.52 2.33,0 4.24,-1.83 4.35,-4.16l0 0z"/>
  <path class="fil4" d="M103.93 65.59l-6.44 7.39c-0.37,0.42 -0.9,0.67 -1.46,0.67 -0.57,0 -1.11,-0.25 -1.47,-0.68l-6.35 -7.43c-1.16,-1.02 -1.83,-2.5 -1.83,-4.04 0,-2.98 2.41,-5.39 5.39,-5.39 1.3,0 2.56,0.47 3.54,1.33l8.2 5.25c0.56,0.36 0.89,0.97 0.89,1.63 0,0.47 -0.17,0.92 -0.48,1.27l0 -0z"/>
  <path class="fil1" d="M136.53 102.18l-11.96 0 0 -4.17c0,-3.3 2.68,-5.98 5.98,-5.98 3.3,0 5.98,2.68 5.98,5.98l0 4.17zm-11.69 -0.26l11.43 0 0 -3.9c0,-3.16 -2.56,-5.71 -5.71,-5.71 -3.16,0 -5.71,2.56 -5.71,5.71l0 3.9z"/>
  <polygon class="fil1" points="142.45,101.6 142.45,99.97 112.04,100.79 111.08,142.06 115.58,147.62 "/>
  <polygon class="fil2" points="147.83,101.03 114.87,101.78 115.58,147.62 147.38,144.19 "/>
  <circle class="fil3" cx="81.96" cy="38.45" r="12.89"/>
  <g>
   <path class="fil0" d="M76.02 32.7c4.46,4.37 12.22,4.79 17.12,0.92 0.76,2.61 1.14,5.33 1.14,8.05 0,7.08 -2.6,13.92 -7.3,19.21 2.73,0.99 5.87,0.34 8.31,-1.23 2.44,-1.57 4.24,-3.97 5.61,-6.53 3.37,-6.34 4.22,-14.08 1.83,-20.85 -2.39,-6.77 -8.1,-12.39 -15.05,-14.21 -6.95,-1.82 -14.91,0.43 -19.55,5.91 -4.85,5.73 -5.64,14.12 -3.51,21.33 2.13,7.2 6.79,13.39 11.92,18.87 -2.45,-6.31 -4.1,-12.96 -4.86,-19.7 -0.26,-2.31 -0.41,-4.69 0.24,-6.93 0.65,-2.23 2.26,-4.31 4.5,-4.94l-0.4 0.09zm0 0l0 0 0 0z"/>
  </g>
  <path class="fil5" d="M153.89 238.42l-153.49 0c-0.22,-0 -0.4,-0.58 -0.4,-1.29 0,-0.71 0.18,-1.29 0.4,-1.29l153.49 0c0.22,-0 0.4,0.58 0.4,1.29 0,0.71 -0.18,1.29 -0.4,1.29l0 0z"/>
  <path class="fil5" d="M130.09 201.68l-11.96 0 0 -4.17c0,-3.3 2.68,-5.98 5.98,-5.98 3.3,0 5.98,2.68 5.98,5.98l0 4.17zm-11.69 -0.26l11.43 0 0 -3.9c-0,-3.16 -2.56,-5.71 -5.71,-5.71 -3.16,0 -5.71,2.56 -5.71,5.71l0 3.9z"/>
  <polygon class="fil5" points="136,201.11 136,199.48 105.59,200.29 104.63,241.57 109.13,247.13 "/>
  <polygon class="fil4" points="141.38,200.53 108.42,201.28 109.13,247.13 140.94,243.7 "/>
  <g id="_1968703496784">
   <path class="fil6 str0" d="M135.38 101.19c-0.03,-9.04 -0.68,-11.83 4.38,-19.77 0.21,-0.33 0.26,-0.62 0.73,-0.89"/>
   <path class="fil7" d="M144.89 74.65c-1.53,-0.25 -4.79,1.83 -4.79,4.1 0,1.83 -0.16,2.62 2.13,1.98 2.99,-0.83 3.16,-2.95 2.83,-5.64 -0.02,-0.15 -0.02,-0.42 -0.17,-0.44z"/>
   <path class="fil7" d="M133.92 78.07c-0.21,-0.37 4.2,1.24 4.06,4.47 -0.03,0.78 1.12,2.36 -2.35,0.36 -1.8,-1.04 -0.85,-3.31 -1.72,-4.83z"/>
   <path class="fil7" d="M137.25 85.87c2.61,-1.67 5.83,-2.34 7.86,0.74 -1.65,1.14 -4.68,2.75 -7.86,-0.74z"/>
   <path class="fil7" d="M135.48 90.59c1.2,0.06 3.59,-0.23 4.99,0.09 1.64,0.38 1.94,1.67 2.13,3.1 -0.64,0.48 -2.32,0.56 -3.7,0.02 -1.88,-0.74 -2.16,-2.68 -3.42,-3.21z"/>
   <path class="fil6 str1" d="M135.23 97.49c0.71,-0.68 -3.71,-7.74 -5.52,-8.99 -0.76,-0.53 -2.91,-1.82 -3.75,-2.02"/>
   <path class="fil7" d="M132.63 82.18c0.21,-0.37 -4.2,1.24 -4.06,4.47 0.03,0.78 -1.12,2.36 2.35,0.36 1.81,-1.04 0.85,-3.31 1.72,-4.83z"/>
   <path class="fil7" d="M126.5 86.69c-1.98,-2.39 -4.85,-4 -7.71,-1.68 1.23,1.59 3.63,4.04 7.71,1.68z"/>
   <path class="fil7" d="M132.55 92.37c-1.2,0.06 -3.59,-0.23 -4.99,0.09 -1.64,0.38 -1.94,1.67 -2.13,3.1 0.64,0.48 2.32,0.56 3.7,0.02 1.88,-0.74 2.16,-2.68 3.42,-3.21z"/>
  </g>
  <g id="_1968703514016">
   <path class="fil6 str0" d="M23.8 35.69c-0.04,-12.15 -0.91,-15.9 5.88,-26.57 0.28,-0.45 0.34,-0.83 0.98,-1.2"/>
   <path class="fil7" d="M36.58 0.03c-2.06,-0.33 -6.44,2.46 -6.44,5.51 0,2.46 -0.22,3.52 2.86,2.66 4.01,-1.12 4.25,-3.97 3.8,-7.58 -0.02,-0.2 -0.03,-0.56 -0.23,-0.59z"/>
   <path class="fil7" d="M21.84 4.63c-0.29,-0.5 5.65,1.67 5.46,6.01 -0.04,1.05 1.51,3.17 -3.15,0.48 -2.43,-1.4 -1.14,-4.45 -2.31,-6.49z"/>
   <path class="fil7" d="M26.32 15.1c3.51,-2.25 7.84,-3.15 10.55,0.99 -2.22,1.53 -6.29,3.7 -10.55,-0.99z"/>
   <path class="fil7" d="M23.93 21.45c1.61,0.08 4.83,-0.31 6.71,0.13 2.2,0.51 2.61,2.24 2.87,4.16 -0.86,0.65 -3.12,0.76 -4.98,0.03 -2.52,-0.99 -2.91,-3.6 -4.6,-4.32z"/>
   <path class="fil6 str1" d="M23.6 30.72c0.95,-0.91 -4.98,-10.4 -7.42,-12.08 -1.02,-0.71 -3.91,-2.45 -5.04,-2.71"/>
   <path class="fil7" d="M20.1 10.15c0.29,-0.5 -5.65,1.67 -5.46,6.01 0.05,1.05 -1.51,3.17 3.15,0.48 2.43,-1.4 1.14,-4.45 2.31,-6.49z"/>
   <path class="fil7" d="M11.87 16.2c-2.66,-3.21 -6.51,-5.38 -10.36,-2.26 1.65,2.14 4.87,5.43 10.36,2.26z"/>
   <path class="fil7" d="M20.01 23.84c-1.61,0.08 -4.83,-0.31 -6.71,0.13 -2.2,0.51 -2.61,2.24 -2.87,4.16 0.86,0.65 3.12,0.76 4.98,0.03 2.52,-0.99 2.91,-3.6 4.6,-4.32z"/>
  </g>
  <g id="_1968703521600">
   <path class="fil6 str0" d="M124.86 200.78c-0.03,-9.04 -0.68,-11.83 4.38,-19.77 0.21,-0.33 0.26,-0.62 0.73,-0.89"/>
   <path class="fil7" d="M134.38 174.24c-1.53,-0.25 -4.79,1.83 -4.79,4.1 0,1.83 -0.16,2.62 2.13,1.98 2.99,-0.83 3.16,-2.95 2.83,-5.64 -0.02,-0.15 -0.02,-0.42 -0.17,-0.44z"/>
   <path class="fil7" d="M123.41 177.67c-0.21,-0.37 4.2,1.24 4.06,4.47 -0.03,0.78 1.12,2.36 -2.35,0.36 -1.8,-1.04 -0.85,-3.31 -1.72,-4.83z"/>
   <path class="fil7" d="M126.74 185.46c2.61,-1.67 5.83,-2.34 7.86,0.74 -1.65,1.14 -4.68,2.75 -7.86,-0.74z"/>
   <path class="fil7" d="M124.96 190.18c1.2,0.06 3.59,-0.23 4.99,0.09 1.64,0.38 1.94,1.67 2.13,3.1 -0.64,0.48 -2.32,0.56 -3.7,0.02 -1.88,-0.74 -2.16,-2.68 -3.42,-3.21z"/>
   <path class="fil6 str1" d="M124.72 197.09c0.71,-0.68 -3.71,-7.74 -5.52,-8.99 -0.76,-0.53 -2.91,-1.82 -3.75,-2.02"/>
   <path class="fil7" d="M122.12 181.78c0.21,-0.37 -4.2,1.24 -4.06,4.47 0.03,0.78 -1.12,2.36 2.35,0.36 1.81,-1.04 0.85,-3.31 1.72,-4.83z"/>
   <path class="fil7" d="M115.98 186.28c-1.98,-2.39 -4.85,-4 -7.71,-1.68 1.23,1.59 3.63,4.04 7.71,1.68z"/>
   <path class="fil7" d="M122.04 191.96c-1.2,0.06 -3.59,-0.23 -4.99,0.09 -1.64,0.38 -1.94,1.67 -2.13,3.1 0.64,0.48 2.32,0.56 3.7,0.02 1.88,-0.74 2.16,-2.68 3.42,-3.21z"/>
  </g>
 </g>
</svg>
