<?xml version="1.0" encoding="UTF-8"?>
<!DOCTYPE svg PUBLIC "-//W3C//DTD SVG 1.1//EN" "http://www.w3.org/Graphics/SVG/1.1/DTD/svg11.dtd">
<!-- Creator: CorelDRAW -->
<svg xmlns="http://www.w3.org/2000/svg" xml:space="preserve" width="91.2611mm" height="85.8326mm" version="1.1" style="shape-rendering:geometricPrecision; text-rendering:geometricPrecision; image-rendering:optimizeQuality; fill-rule:evenodd; clip-rule:evenodd"
viewBox="0 0 113.57 106.82"
 xmlns:xlink="http://www.w3.org/1999/xlink"
 xmlns:xodm="http://www.corel.com/coreldraw/odm/2003">
 <defs>
  <style type="text/css">
   <![CDATA[
    .fil1 {fill:#2C7856}
    .fil2 {fill:#2E7A58}
    .fil0 {fill:#368562}
   ]]>
  </style>
 </defs>
 <g id="Capa_x0020_1">
  <metadata id="CorelCorpID_0Corel-Layer"/>
  <g id="_1965508530560">
   <path class="fil0" d="M94.1 101.67c-3.9,-1.32 -9.71,-2.67 -14.37,-1.32 -0.73,0.21 -7.5,3.04 -8.38,3.49 -3.36,-7.17 -3.14,-9.11 -4.94,-15.94 -1,-3.8 -1.89,-10.96 -1.7,-14.8 0.31,-6.46 -5.83,-4.19 -5.91,-4.03 -2.24,4.41 -2.13,9.08 -2.13,14.16 0,3.03 1.02,8.3 1.24,11.02 0.19,2.39 5.79,11.57 7.15,12.56 -5.22,-1.34 -6.16,0.42 -12.56,-1.62 -5.3,-1.69 -4.67,-3.05 -8,-4.69 -2.31,-10.66 -2.2,-14.26 -2,-18.58 0.36,-7.76 1.25,-13.32 2.81,-21.08 0.7,-3.5 1.23,-6.14 1.24,-6.19 0.36,-1.49 -0.61,-2.25 -1.14,-2.56 -2.29,-1.37 -4.2,3.29 -4.97,8.09 -1.12,6.91 -2.64,16.26 -3.48,23.14 -1.42,11.69 2.81,14.35 3.64,18.17 -6.19,-3.22 -21.81,-9.92 -23.71,-15.84 0,-6.97 2.22,-17.42 7.76,-24.34 3.21,-4.01 10.8,-17.14 8.83,-17.92 -1.86,-1.18 -6.19,4.4 -7.87,7.93 -3.22,6.76 -7.69,10.29 -9.57,16.88 -1.5,5.27 -2.14,11.48 -2.16,16.54 -8.93,-13.19 -16.13,-20.86 -13.22,-38.74 0.63,-3.86 2.45,-6.73 6.25,-10.87 9.5,-10.35 14.1,-16.45 26.27,-10.84 7.3,3.36 13.74,6.57 13.74,-0.08 0.68,-7.92 0.19,-17.19 8,-21.58 4.97,-2.8 5.25,-2.65 11.58,-2.65 6.07,0 14.64,4.11 19.58,7.47 1.3,0.88 1.85,2.46 5.24,3.68 3.09,1.11 11.27,10.5 13.03,13.58 0.98,1.71 3.98,6.95 5.06,8.02 -0.69,0.02 -7.34,-3.71 -10.71,-4.17 -2.55,-0.35 -5.49,-4.66 -13.38,-5.09 -4.38,-0.24 -9.73,-2.24 -13.42,0.48 -0.88,0.65 -4.01,1.25 -2.27,4.61 0.64,1.25 2.12,1.36 3.51,1.19 6.33,-0.77 7.97,1.28 12.92,1.28 6.81,0 12.35,1.44 17.91,5 3.14,2.01 6.45,3.7 7.64,7.05 0.1,0.29 0.17,0.29 0.42,0.46 1.45,0.5 1.08,12.41 1.55,15.14 -0.68,0.19 -6.1,-8.62 -8.6,-9.99 -3.31,-1.82 -5.12,-4.73 -10.03,-6.35 -1.76,-0.58 -3.36,-1.81 -5.09,-2.76 -1.33,-0.73 -6.05,-2.1 -7.73,-2.54 -2.09,-0.55 -4.04,-0.37 -2.81,3.42 0.54,1.67 3.54,1.83 3.98,2.3 1.78,-0.06 12.53,5.56 14.09,7.56 0.39,0.51 7.55,4.27 10.75,8.36 0.64,0.82 2.87,3.48 3.59,4.02 0,2.03 -2.82,13.7 -2.78,14.52 0.06,1.24 -0.35,0.9 -0.31,1.39 -2.01,-1.97 -2.18,-10.36 -7.69,-13.96 -1.44,-0.94 -2.09,-2.65 -5.39,-4.38 -0.91,-0.48 -5.99,-5.57 -8.65,-2.37 -2.24,2.69 8.21,8.43 9.88,10.3 1.16,1.3 3.64,2.56 5.56,5.11 0.72,0.96 3.32,3.96 3.19,5.29 0.05,1.59 -2.05,4.34 -4.29,7.09 -4.05,4.97 -4.41,5.81 -6.71,11.27 -0.67,1.6 -1.16,3.32 -0.43,4.66z"/>
   <path class="fil1" d="M33.8 44.08c-0.01,-0.35 -0.11,-0.58 -0.32,-0.67 -1.86,-1.18 -6.19,4.4 -7.87,7.93 -3.22,6.76 -7.69,10.29 -9.57,16.88 -1.5,5.27 -2.14,11.48 -2.16,16.54 -7.36,-10.88 -13.55,-18.01 -13.86,-30.2 4.17,-1.79 9.7,2.36 11.98,-4.26 -0.06,0.04 0.55,-6.73 3.32,-8.53 3.5,-2.27 2.2,-14.43 15.99,-11.33 0.52,0.12 7.9,5.01 6.6,8.57 -1.77,4.81 -2.34,3.87 -4.11,5.06z"/>
   <path class="fil2" d="M75.63 29.6c0.56,-0.04 1.62,-0.03 2.71,0.07 7.04,0.65 17.81,1.38 25.63,6.38 4.66,2.98 6.67,4.77 7.97,5.65 1.45,0.5 1.17,14.28 1.64,17.01 -0.44,0.12 -2.9,-3.57 -5.25,-6.54 -0.98,-1.24 -2.55,-2.73 -4.33,-4.18 -2.86,-2.33 -5.43,-3.74 -8.12,-5.14 -5.03,-2.61 -8.27,-4.48 -14.01,-5.84 -1.99,-0.47 -3.75,-0.16 -2.56,3.48 0.25,0.75 0.97,1.25 1.77,1.5 5.85,1.87 13.35,5.65 19.6,9.87 5.16,3.48 8.06,8.13 11.04,10.87 0,2.03 -2.82,13.7 -2.78,14.52 0.06,1.24 -0.35,0.9 -0.31,1.39 -1.01,-0.99 -1.19,-3.76 -2.55,-6.4 -2.51,-4.89 -10.5,-13.06 -15.47,-15.07 -1.32,-0.53 -2.7,-0.44 -3.7,0.77 -2.24,2.69 8.21,8.43 9.88,10.3 1.16,1.3 3.64,2.56 5.56,5.11 0.72,0.96 3.32,3.96 3.19,5.29 0.05,1.59 -2.05,4.34 -4.29,7.09 -1.13,1.39 -1.97,2.45 -2.65,3.38 -6.89,-4.1 -5.18,-12.41 -18.22,-14.99 -11.53,-2.28 -10.28,-12.62 -14.17,-22.04 -1.36,-3.3 3.58,-8.91 2.03,-13.51 -3.76,-11.2 5.46,-5.12 6.58,-7.83 0.25,-0.61 0.54,-0.75 0.81,-1.15z"/>
   <path class="fil1" d="M41.33 56.38c-0.37,1.18 -0.67,2.49 -0.88,3.82 -0.37,2.31 -0.79,4.88 -1.21,7.55 -2.96,2.43 -7.29,3.42 -7.6,4.73 -0.56,0.19 -8.29,11.43 -14.55,9.42 0.62,-6.31 2.75,-14.09 6.97,-19.79 1.31,-0.17 2.82,0.05 4.56,0.76 2.75,1.14 11.51,-1.77 8.46,-5.24 -0.29,-3.6 2.56,-3.6 4.26,-1.24z"/>
   <path class="fil0" d="M56.89 86.32c0.31,2.79 0.87,6.01 1.02,7.94 0.19,2.39 5.79,11.57 7.15,12.56 -5.22,-1.34 -6.16,0.42 -12.56,-1.62 -5.3,-1.69 -4.67,-3.05 -8,-4.69 -2.31,-10.66 -2.2,-14.26 -2,-18.58 0.26,-5.46 0.77,-9.83 1.59,-14.63 0.97,-1.2 2.16,-1.53 3.53,0.11 2.7,3.23 -1.69,9 3.24,8.84 3.98,-0.13 -2.69,4.81 6.02,10.06z"/>
   <path class="fil1" d="M56.89 86.32c0.31,2.79 0.87,6.01 1.02,7.94 0.19,2.39 5.79,11.57 7.15,12.56 -5.22,-1.34 -6.16,0.42 -12.56,-1.62 -5.3,-1.69 -4.67,-3.05 -8,-4.69 -2.31,-10.66 -2.2,-14.26 -2,-18.58 0.26,-5.46 0.77,-9.83 1.59,-14.63 0.97,-1.2 2.16,-1.53 3.53,0.11 2.7,3.23 -1.69,9 3.24,8.84 3.98,-0.13 -2.69,4.81 6.02,10.06z"/>
   <path class="fil1" d="M98.89 17.83c2.43,2.69 4.63,5.48 5.45,6.91 0.98,1.71 3.98,6.95 5.06,8.02 -0.69,0.02 -7.34,-3.71 -10.71,-4.17 -1.48,-0.2 -3.09,-1.74 -5.72,-3.07 -0.01,-0.93 0.63,-1.7 2.24,-2.04 5.53,-1.15 3.71,-3.9 3.68,-5.65z"/>
   <path class="fil1" d="M38.61 26.74c4.78,1.94 8.3,2.41 8.3,-2.5 0.39,-4.56 0.39,-9.56 1.82,-13.83 4.92,0.62 11.29,2.93 11.02,-1.58 -0.23,-3.88 12.11,-3.94 8.83,4.02 -2.31,5.6 5.35,4.21 -4,15.29 -3.59,4.26 -6.44,4.68 -3.93,12.87 0.63,2.05 3.48,13.48 1.25,13.78 -7.82,1.07 -3.71,-11.79 -11.77,-7.97 -8.4,3.98 -4.47,-8.32 -8.07,-12.16 -0.65,-0.69 -3.67,-5.05 -3.45,-7.94z"/>
  </g>
 </g>
</svg>
