<?xml version="1.0" encoding="UTF-8"?>
<!DOCTYPE svg PUBLIC "-//W3C//DTD SVG 1.1//EN" "http://www.w3.org/Graphics/SVG/1.1/DTD/svg11.dtd">
<!-- Creator: CorelDRAW -->
<svg xmlns="http://www.w3.org/2000/svg" xml:space="preserve" width="102.574mm" height="75.5915mm" version="1.1" style="shape-rendering:geometricPrecision; text-rendering:geometricPrecision; image-rendering:optimizeQuality; fill-rule:evenodd; clip-rule:evenodd"
viewBox="0 0 148.16 109.19"
 xmlns:xlink="http://www.w3.org/1999/xlink"
 xmlns:xodm="http://www.corel.com/coreldraw/odm/2003">
 <defs>
  <style type="text/css">
   <![CDATA[
    .fil1 {fill:#C6D085}
    .fil0 {fill:#CFD6A4}
   ]]>
  </style>
 </defs>
 <g id="Capa_x0020_1">
  <metadata id="CorelCorpID_0Corel-Layer"/>
  <g id="_1972174086208">
   <path class="fil0" d="M132.4 47.59c-0.62,1.21 -1.84,2.97 -3.19,4.63 -3.78,4.66 -11.28,9.49 -16.14,13.63 -6.98,5.94 -14.24,8.4 -19.5,16.05 -3.98,5.79 -7.05,6.78 -11.81,12.06 -4.55,5.05 -8.28,7.5 -14.6,10.04 -11.49,4.62 -13.38,5.84 -25.55,4.89 -5.61,-0.44 -15.15,-3.23 -19.9,-6.17 -8.35,-5.16 -8.04,-10.19 -10.74,-18.52 -0.87,-2.66 -2.24,-4.45 -3.67,-5.86 -4.76,-4.69 -6.86,-10.68 -7.2,-17 -0.32,-5.93 -0.05,-11.01 4,-15.5 1.9,-2.1 2.99,-3.74 4.12,-5.46 2.65,-4.02 6.1,-8.04 9.82,-11.06 2.94,-2.38 6.86,-4.75 10.94,-6.91 1.37,-0.73 9.44,-4.2 17.69,-7.72 11.27,-4.81 16.01,-7.39 23.53,-8.96 2.21,-0.46 8.69,-1.48 14.21,-2.47 11.32,-2.05 15.38,-2.93 21.42,-3.2 6.24,-0.29 12.72,0.37 18.74,0.95 5,0.49 9.69,0.92 13.67,0.73 5.51,-0.27 11.89,-2.22 9.33,5.16 -0.64,1.83 -1.8,2.09 -1.8,4.47 0,2.01 -1.59,4.99 -2.94,7.92 -1.88,4.08 -1.96,7.07 -3.2,11.14 -1.43,4.72 -2.19,6.93 -3.17,9.1 -1.22,2.71 -2.71,5.38 -4.06,8.04zm-105.83 35.49c-0.94,-0.54 -2.07,-1.92 -2.73,-3.35 -2.29,-4.93 2.59,-4.11 5.94,-4.44 4.84,-0.47 7.76,-0.47 12.61,0.62 5.79,1.3 12.25,3.33 18.08,4.99 5.97,1.7 13.69,4.4 9.2,6.05 -0.91,0.33 -4.43,0.59 -7.31,1.12 -3.42,0.63 -5.02,1.59 -9.04,1.99 -1.71,0.17 -3.58,0.29 -5.35,0.34 -3.31,0.09 -5.06,-0.22 -6.92,-0.76 -3.9,-1.14 -8.11,-2.1 -11.35,-4.56 -0.84,-0.64 -1.7,-1.3 -3.12,-1.99zm-7.69 -17.04c-1.57,0.01 -3.03,-0.73 -3.03,-3.58 0,-1.68 0.03,-3.06 0.11,-4.27 0.15,-2.16 0.49,-3.79 1.18,-5.66 1.08,-2.9 3.26,-7.54 5.41,-9.69 1.71,-1.71 3.51,-2.35 6.5,-4.92 5.28,-4.53 6.05,-7.14 6.05,6.75 0,8.08 0.23,13.53 -4.89,17.15 -1.71,1.21 -9.1,4.2 -11.33,4.22zm35.95 -39.81c-0.92,-5.24 -2.46,-4.29 -5.91,-1.82 -3.9,2.8 -3.49,5.64 -4.86,9.66 -1.08,3.2 -1.1,4.89 -1.52,8.18 -0.51,3.97 -1.02,9.3 0.65,10.58 2.74,2.1 2.73,1.71 4.64,-0.69 0.95,-1.2 0.68,-0.79 2.06,-1.78 2.59,-1.87 4.92,-7.49 5.12,-10.66 0.26,-4.1 0.4,-8.59 -0.09,-12.59 -0.05,-0.39 0.01,-0.35 -0.09,-0.88zm6.56 43.58c-2.04,-0.57 -10.19,-2.34 -10.19,-4.86 0,-1.37 2.71,-0.52 5.43,-1.03 1.54,-0.28 1.83,-0.8 3.56,-0.87 2.61,-0.11 7.75,0.13 11.7,0.57 3.83,0.42 5.11,0.73 8.29,2.75 2,1.27 3.88,2.98 1.8,4.04 -0.09,0.04 -1.59,-0.05 -3.07,0.13 -0.38,0.05 -1.96,0.4 -3.24,0.73 -1.1,0.28 -2.4,1 -3.32,1.07 -0.65,0.05 -1.42,-0.01 -2.25,-0.14 -3.25,-0.49 -7.41,-2.02 -8.71,-2.38zm14.96 -14.7c-0.91,-1.11 -1.28,-2.59 0.72,-3.5 0.09,-0.04 1.9,-0.64 3.23,-1.08 2.02,-0.67 2.37,-0.69 4.61,0.05 0.9,0.3 1.75,0.65 2.66,0.93 2.86,0.88 6.33,1.57 8.8,3.08 0.85,0.52 2.43,1.23 2.89,1.83 0.49,0.63 0.77,1.39 0.44,2.19 -0.62,1.51 -2.87,3.03 -4.93,3.95 -2.76,1.22 -3.15,1.07 -5.64,-0.19 -2.3,-1.17 -5.61,-3.06 -7.87,-4.43 -1.73,-1.05 -3.78,-1.44 -4.92,-2.83zm-1.59 -37.53c-1.11,0.25 -1.81,0.43 -2.3,0.62 -1.02,0.4 -1.11,0.84 -2.12,2.02 -1.13,1.34 -1.85,1.74 -2.69,3.42 -0.54,1.08 -1.06,2.39 -1.5,3.6 -1.18,3.2 -1.27,3.97 -1.24,7.62 0.03,3.18 0.49,6.76 2.37,6.76 2.88,0 8.1,-1.2 9.14,-3.99 0.83,-2.24 2.6,-7.46 2.81,-11.15 0.07,-1.28 -0.41,-3.73 -0.65,-5.15 -0.12,-0.74 -0.38,-1.61 -0.99,-2.58 -0.03,-0.05 -0.15,-1.13 -0.77,-1.55 -0.7,-0.47 -1.31,0.22 -2.08,0.4zm19.55 25.9c-0.35,-0.43 -0.53,-0.83 -0.59,-1.19 -0.2,-1.3 1.32,-2.12 3.21,-2.25 6.1,-0.43 6.41,-0.86 12.51,1.65 2.06,0.85 7.02,0.31 7.02,3.3 0,1.63 -5.5,2.7 -7.04,3.24 -2.68,0.94 -6.82,-0.06 -9.17,-1.22 -1.36,-0.67 -3.4,-0.14 -4.71,-1.35 -0.82,-0.75 -0.79,-1.63 -1.23,-2.18zm4.83 -18.21c-12.19,-5.5 5.67,-18.83 4.21,-6.33 -0.3,2.57 -0.91,7.82 -4.21,6.33z"/>
   <path class="fil1" d="M132.4 47.59c-0.62,1.21 -1.84,2.97 -3.19,4.63 -3.78,4.66 -11.28,9.49 -16.14,13.63 -6.98,5.94 -14.24,8.4 -19.5,16.05 -1.9,2.77 -3.6,4.44 -5.37,6.01 -1.42,-0.07 -2.47,-0.58 -2.96,-1.68 -2.66,-5.99 -13.53,-3.58 -10.28,-12.52 0.39,-1.08 0.67,-1.88 0.85,-2.5 1.26,-0.32 2.73,-0.65 3.1,-0.69 1.48,-0.18 2.98,-0.08 3.07,-0.13 2.08,-1.06 0.2,-2.76 -1.8,-4.04 -1.92,-1.22 -3.15,-1.82 -4.67,-2.19l-0 -0.03c0,-4.59 2.97,-5.61 7.09,-5.42 2.1,1.24 4.66,2.68 6.54,3.63 2.48,1.26 2.88,1.41 5.64,0.19 1.1,-0.49 2.27,-1.15 3.2,-1.9 5.17,0.03 9.19,-1.8 9.19,-9.17 0,-1.12 -0.05,-2.07 -0.15,-2.89 0.86,-0.01 1.68,-0.12 2.4,-0.37 1.54,-0.54 7.04,-1.61 7.04,-3.24 0,-2.99 -4.96,-2.45 -7.02,-3.3 -6.1,-2.52 -6.41,-2.08 -12.51,-1.65 -1.89,0.13 -3.4,0.96 -3.21,2.25 0.05,0.36 0.24,0.76 0.59,1.19 0.44,0.55 0.41,1.43 1.23,2.18 1.22,1.12 3.05,0.74 4.4,1.22 -0.32,0.28 -0.63,0.56 -0.94,0.85 -3.28,3.06 -4.7,4.34 -9.24,0.99 -3.74,-2.76 -4.02,-6.53 -20.64,3.57 -8.79,5.34 -12.54,-4.04 -12.64,-11.31 -0.06,-4.47 1.97,-7.22 1.81,-11.48 -0.16,-4.15 -2.16,-7.18 -3.82,-9.4 -2.83,-3.79 -2.37,-4.41 -1.58,-8.09 7.12,-3.13 11.34,-5.01 17.3,-6.25 2.21,-0.46 8.69,-1.48 14.21,-2.47 11.32,-2.05 15.38,-2.93 21.42,-3.2 6.24,-0.29 12.72,0.37 18.74,0.95 5,0.49 9.69,0.92 13.67,0.73 5.51,-0.27 11.89,-2.22 9.33,5.16 -0.64,1.83 -1.8,2.09 -1.8,4.47 0,2.01 -1.59,4.99 -2.94,7.92 -1.88,4.08 -1.96,7.07 -3.2,11.14 -1.43,4.72 -2.19,6.93 -3.17,9.1 -1.22,2.71 -2.71,5.38 -4.06,8.04zm-57.63 -30.02c-1.11,0.25 -1.81,0.43 -2.3,0.62 -1.02,0.4 -1.11,0.84 -2.12,2.02 -1.13,1.34 -1.85,1.74 -2.69,3.42 -0.54,1.08 -1.06,2.39 -1.5,3.6 -1.18,3.2 -1.27,3.97 -1.24,7.62 0.03,3.18 0.49,6.76 2.37,6.76 2.88,0 8.1,-1.2 9.14,-3.99 0.83,-2.24 2.6,-7.46 2.81,-11.15 0.07,-1.28 -0.41,-3.73 -0.65,-5.15 -0.12,-0.74 -0.38,-1.61 -0.99,-2.58 -0.03,-0.05 -0.15,-1.13 -0.77,-1.55 -0.7,-0.47 -1.31,0.22 -2.08,0.4zm24.38 7.69c-12.19,-5.5 5.67,-18.83 4.21,-6.33 -0.3,2.57 -0.91,7.82 -4.21,6.33z"/>
  </g>
 </g>
</svg>
