<?xml version="1.0" encoding="UTF-8"?>
<!DOCTYPE svg PUBLIC "-//W3C//DTD SVG 1.1//EN" "http://www.w3.org/Graphics/SVG/1.1/DTD/svg11.dtd">
<!-- Creator: CorelDRAW -->
<svg xmlns="http://www.w3.org/2000/svg" xml:space="preserve" width="85.5752mm" height="79.5229mm" version="1.1" style="shape-rendering:geometricPrecision; text-rendering:geometricPrecision; image-rendering:optimizeQuality; fill-rule:evenodd; clip-rule:evenodd"
viewBox="0 0 107.18 99.6"
 xmlns:xlink="http://www.w3.org/1999/xlink"
 xmlns:xodm="http://www.corel.com/coreldraw/odm/2003">
 <defs>
  <style type="text/css">
   <![CDATA[
    .fil1 {fill:#6F836A}
    .fil0 {fill:#7D9377}
    .fil2 {fill:#BCCCCD}
   ]]>
  </style>
 </defs>
 <g id="Capa_x0020_1">
  <metadata id="CorelCorpID_0Corel-Layer"/>
  <g id="_1971681247808">
   <path class="fil0" d="M100.66 99.52c1,0.24 1.91,-0.08 2.72,-1.22 0.57,-0.8 1.29,-6.34 1.59,-7.86 0.67,-3.37 1.44,-3.45 1.86,-4.78 0.96,-3.01 -0.31,-6.36 -0.82,-9.36 -0.2,-1.18 -0.21,-2.01 -0.24,-4.29 -0.07,-5.75 -0.97,-6.72 -3.5,-11.65 -3.23,-6.29 -2.54,-7.43 -7.9,-14.28 -1.92,-2.45 -4.01,-4.93 -5.88,-6.92 -3.18,-3.4 -13.47,-11.21 -16.82,-13.07 -4.83,-2.69 -10.68,-5.47 -15.24,-7.35 -6.94,-2.86 -15.88,-6.38 -23.1,-8.56 -1.85,-0.56 -3.93,-1.16 -5.84,-1.7 -6.51,-1.83 -8.14,-2.4 -14.59,-5.17 -7.33,-3.16 -16.28,-6.17 -11.61,1.74 -0.11,0.07 1.39,2.16 2.95,4.44 3.5,5.13 2.81,4.26 3.94,9.64 0.93,4.48 2.38,8.59 3.59,12.97 3.92,14.26 4.33,12.46 13.07,24.02 2.79,3.69 6.12,7.73 8.85,8.73 0.36,0.13 14.96,12.24 18.86,14.22 4.6,2.34 10.99,4.97 13.18,5.53 1.09,0.28 15.4,6.95 18.61,8.51 2.33,1.13 4.9,2.36 5.71,2.64 2.65,0.94 8.06,3.16 10.61,3.77z"/>
   <path class="fil1" d="M100.66 99.52c1,0.24 1.91,-0.08 2.72,-1.22 0.57,-0.8 1.29,-6.34 1.59,-7.86 0.67,-3.37 1.44,-3.45 1.86,-4.78 0.96,-3.01 -0.31,-6.36 -0.82,-9.36 -0.2,-1.18 -0.21,-2.01 -0.24,-4.29 -0.07,-5.75 -0.97,-6.72 -3.5,-11.65 -3.23,-6.29 -2.54,-7.43 -7.9,-14.28 -1.92,-2.45 -4.01,-4.93 -5.88,-6.92 -3.18,-3.4 -13.47,-11.21 -16.82,-13.07 -4.83,-2.69 -10.68,-5.47 -15.24,-7.35 -6.94,-2.86 -15.88,-6.38 -23.1,-8.56 -1.85,-0.56 -3.93,-1.16 -5.84,-1.7 -6.51,-1.83 -8.14,-2.4 -14.59,-5.17 -1.99,-0.86 -4.1,-1.7 -6.02,-2.32 0.07,0.73 0.2,1.26 0.21,2 0.09,4.54 14.36,10.93 17.46,11.71 10.96,2.78 17.02,6.81 27.6,10.68 0.25,1.05 5.53,2.41 6.19,2.43 6.14,0.22 8.33,3.3 12.58,5.3 8.84,4.15 6.92,9.93 14.21,13.17 3.86,1.72 8.53,12.97 8.39,16 -0.22,4.62 0.09,22.28 -2.56,24.93 -1.17,1.17 -15.8,-4.31 -17.46,-5.11 -7.2,-3.47 -10.07,-4.22 -17.58,-6.62 -2.28,-0.73 -18.46,-11.7 -20.19,-13.43 -2.15,-2.15 -13.86,-15.59 -14.37,-17.11 -2.7,-1.03 -7.32,-14.85 -6.39,-12.72 0.07,-0.84 -2.49,-11.06 -2.52,-11.09 -2.03,-1.88 -3.39,-2.43 -4.3,-2.14l0.03 0.15c0.93,4.48 2.38,8.59 3.59,12.97 3.92,14.26 4.33,12.46 13.07,24.02 2.79,3.69 6.12,7.73 8.85,8.73 0.36,0.13 14.96,12.24 18.86,14.22 4.6,2.34 10.99,4.97 13.18,5.53 1.09,0.28 15.4,6.95 18.61,8.51 2.33,1.13 4.9,2.36 5.71,2.64 2.65,0.94 8.06,3.16 10.61,3.77z"/>
   <path class="fil2" d="M3.72 3.45c-1.74,0.68 -2.2,0.12 -2.28,-1.83 -0.01,-0.21 1.72,-1.87 2.28,1.83z"/>
   <path class="fil2" d="M5.73 4.09c3.13,0 1.97,1.28 3.27,-0.46 0.92,-1.24 3.61,3.42 0.66,2.13 -0.54,-0.24 0.17,1.13 -1.1,1.07 -0.33,-0.01 -4.33,2.38 -4.48,-1.01 -0.02,-0.49 1.07,-1.01 1.19,-1.01l0.46 -0.73z"/>
   <path class="fil2" d="M11.81 8.84c1.06,-2.75 1.64,-2.17 2.35,0.25 0.38,1.3 -2.71,0.66 -2.35,-0.25z"/>
   <path class="fil2" d="M5.58 11.45c0.81,1.22 1.23,1.96 1.51,2.71 0.6,-0.15 1.14,-0.4 1.26,-0.66 0.63,-1.37 1.05,0.59 1.23,-0.82 0.19,-1.52 0.9,0.03 1.74,-0.66 1.22,-1 -1.98,-1.95 -2,-1.99 -0.67,-1.22 -1.19,0.12 -1.58,-0.11 -1.73,-1.04 -0.44,0.72 -1.64,1.39l-0.52 0.14z"/>
   <path class="fil2" d="M16.9 4.99c-0.66,-0.27 -1.36,-0.56 -2.14,-0.89 -0.24,0.3 -0.45,0.7 -0.72,1.14 -0.12,0.2 -0.13,0.85 0.13,0.95 0.68,0.27 0.2,1.13 1.37,1.1 2.05,-0.06 1.18,0.99 2.19,0.64 0.1,-0.39 0.01,-0.86 -0.39,-1.06 -0.72,-0.37 -1.48,-1.57 -0.95,-1.65 0.23,-0.03 0.39,-0.11 0.5,-0.22z"/>
   <path class="fil2" d="M7.43 15.33c0.15,0.66 0.29,1.45 0.51,2.59 0.98,-0.08 2.08,-0.3 2.42,0.22 0.25,0.38 3.36,0.34 3.39,-0.02 0.08,-0.94 0.36,-0.22 0.53,-0.51 0.4,-0.71 -0.19,-0.05 0.54,-0.61 1.23,-0.94 1.71,-0.05 2,-0.36 0.94,-1.04 1.71,-0.62 1.68,-1.38 -0.08,-1.66 0.26,-1.13 0.38,-1.7 0.21,-1 1.35,-0.98 0.88,-1.4 -0.37,-0.33 0.26,-1.63 0.43,-1.66 1.17,-0.17 -0.43,-0.7 -0.03,-1.16 1.12,-1.3 -1.64,-2.6 -1.56,-0.81 0.05,1.12 -0.22,0.8 -0.24,1.08 -0.14,1.71 -0.43,-0.15 -1.24,1.41 -0.31,0.6 0.15,-0.25 -0.22,0.33 -0.54,0.86 0.11,1.34 -0.51,1.56 -0.69,-0.45 -1.16,0.58 -1.4,0.26 -0.44,-0.6 -0.62,0.15 -0.62,0.15 0.04,1.06 -1.94,-1.04 -2.46,0.86 -0.68,2.52 -1.64,-0.98 -2.24,0.46 -0.55,1.34 -1.51,-0.82 -1.87,0.16 -0.11,0.29 -0.23,0.44 -0.35,0.53z"/>
   <path class="fil2" d="M27.19 8.39c-1.07,-0.3 -2,-0.57 -2.85,-0.82 -0.04,0.26 -0.04,0.58 0.01,0.99 0.05,0.4 0.16,0.18 0.25,0.33 1.07,1.79 -0.57,0.51 -0.13,1.55 0.62,1.45 -0.32,0.53 -0.25,1.48 0.2,2.61 -1.18,-0.44 -1.05,2.51 0.09,2.06 -2.61,-0.04 -2.5,2.42 0.13,3.12 -0.92,1.41 -1.2,1.96 -1.22,2.43 -0.83,0.66 -1.36,1.45 -1.23,1.85 -1,0.72 -2.07,1.21 -1.95,0.88 -0.85,-0.01 -1.81,0.32 -0.38,1.65 -1.16,-0.18 -1.38,-0.34 -2.96,-2.11 -1.84,1.56 -1.89,1.91 -0.26,2.13 0.93,2.4 0.9,3.11 -0.07,1.66 2.35,0.12 2.35,0 -0.06,-1.42 3.55,0.18 4,-1.06 0.43,-1.2 0.22,0.05 0.46,-0.54 0.61,-1.53 2.36,-0.59 1.74,-1.56 -0.55,-0.85 0.42,-1.54 0.56,-1.54 1.03,-0.04 0.57,-1.44 0.9,-1.51 2.11,-0.44 -0.19,-1.44 1.46,-1.87 3.16,-0.84 0.25,-1.11 2.47,-3.4 1.97,-2.02 0.74,-2.98 0.61,-4.05 -0.16,-1.33 0.74,0.21 0.76,-2.56z"/>
   <path class="fil2" d="M30.52 15.42c-0.93,-2.19 1.32,-2.13 1.9,-3.39 0.67,-1.47 3.03,2.6 -0.09,3.32 -0.37,1.06 0.7,1.07 -0.67,1.35 -0.65,0.13 1.16,2.23 -1.2,3.7 -0.5,0.31 1.74,1.27 -0.27,3.74 -0.31,0.38 -0.15,1.14 -1.35,1.38 -0.34,0.98 1.71,1.74 -1.86,2.27 -1.22,0.18 0.65,2.53 -2.57,2.39 -0.1,-0 -0.22,3.17 -2.12,1.67 -0.01,-0.01 -2.92,1.01 -3.37,0.99 -0.84,-0.04 -3.36,0.5 -2.55,-1.28 0.27,-0.6 2.58,0.22 3.41,-1.18 0.61,-1.04 0.57,1.46 3.66,-0.82 0.3,-0.22 1.01,0.13 1.37,-0.66 1.03,-2.29 -2.17,-3.03 2.64,-3.38 1.17,-0.09 -0.28,-5.97 1.46,-6.33 1.09,-0.23 -0.34,-1.77 1.3,-2.1 0.01,-0 0.92,-1.04 0.54,-1.41 -0.14,-0.13 -0.15,-0.07 -0.23,-0.24z"/>
   <path class="fil2" d="M12.27 33.87c0.2,0.7 0.38,1.35 0.56,1.97 0.29,0.02 0.57,-0.03 0.78,-0.14 1.34,-0.66 3.05,0.16 2.41,-0.75 -0.61,-0.87 -0.55,-1.97 -0.8,-2.08 -1.67,-0.79 -2.1,0.34 -2.95,1.01z"/>
   <path class="fil2" d="M40 12.37c-0.36,-0.13 -0.73,-0.25 -1.09,-0.38l-0 0c-1.56,2.58 0.09,0.67 -2.58,2.18l-0.47 0.76c0,0.08 0.03,0.21 -0.02,0.26 -1.06,1.34 0.68,2.81 -0.17,3.45 -1.97,1.47 -0.59,1.45 -0.48,3.88 0.1,2.26 -1.33,2.56 -1.33,2.75 0.05,1.31 -1.12,0.89 -1.24,1.7 -0.37,2.58 1.91,1.24 -1.02,3.36 -0.05,0.04 -0.25,2.62 0,3.01 0.97,1.53 -2.3,0.91 -2.46,1.58 -0.28,1.17 -1.6,0.4 -3.15,1.91 -2.15,2.1 -2.86,-1.05 -3.33,0.1 0.23,0.39 -3.61,0.28 -4.26,0.28 -3.03,0 -1.94,4.49 0.22,3.22 1.89,-1.11 3.22,-0.9 4.05,-1.26 3.1,-1.35 2.57,0.01 3.41,-0.37 2.96,-1.35 6.17,1.02 6.17,-3.68 0,-1.39 2.57,-1.45 0.85,-2.06 -1.03,-0.37 0.25,-1.14 0.26,-1.15 2.96,-0.96 0.36,-1.24 1.34,-1.76 2.17,-1.13 0.41,-2.2 1.2,-4.27 1.23,-0.38 0.44,-3.24 0.73,-3.64 1.67,-2.35 -0.14,-3.08 0.17,-4.27 3.7,-1.75 0.14,-2.76 2.65,-3.07 0.91,-0.11 0.9,-1.62 0.54,-2.55z"/>
   <path class="fil2" d="M45.83 14.52c-1.31,-0.5 -2.62,-0.99 -3.93,-1.46 -0.32,1.11 -0.59,1.88 -0.59,3.45 0,0.71 0.44,4.26 0.41,4.35 -1.13,3.18 -0.19,1.75 -0.19,4.13 -3.03,0 -1.48,4.05 0.86,3.58 3.23,-0.66 -1.85,-2.93 1.39,-2.93 1.08,0 0.41,-1.71 0.41,-1.71 -3.36,-2.53 2.32,-0.51 0.9,-2.5 -2.03,-2.86 0.32,-1.49 -0.32,-2.75 -2.51,-4.91 0.33,-2.31 1.05,-4.16z"/>
   <path class="fil2" d="M38.95 33.44c0.83,-0.67 1.14,-5.25 3.66,-0.38 1.57,3.03 -1.26,0.44 -0.47,2.36 0.54,1.32 -0.94,-0.33 -0.82,1.24 0.03,0.44 -2.05,-0.33 -2.08,-1.24 -0,-0.08 -2.57,-0.59 -0.86,-1.61l0.57 -0.38z"/>
   <path class="fil2" d="M17.83 47.09c0.79,1.09 1.73,2.26 2.89,3.71 0.25,-0.14 0.46,-0.32 0.58,-0.55 1.36,-2.48 -0.7,-0.66 0.83,-1.5 0.9,-0.49 0.81,0.27 1.6,0.39 2.72,0.4 1.5,-0.05 1.52,-0.58 0.05,-1.23 0.84,-0 0.91,0.01 2.7,0.31 0.05,-0.88 2.69,-0.09 1.02,-0.77 -0.89,-1.57 0.55,-1.03 1.93,0.72 1.24,-0.31 1.23,-0.31 -1.05,-0.29 0.2,-1.11 0.92,-0.2 3.16,4.04 0.81,-2.33 1.73,-1.24 2.15,2.58 2.07,0.08 1.52,-0.46 -0.58,-0.58 0.65,-0.34 0.68,-0.32 1.65,1.8 2.39,-0.05 1.97,-0.28 -2.6,-1.35 -1.97,-2.54 -0.43,-1.54 3,1.94 1.09,-1.31 2.21,-1.27 2.26,0.1 0.28,-1.7 0.02,-1.71 -2.86,-0.15 -1.4,-0.52 -2.86,1 0.01,-0.01 -2.18,-1.32 -1.8,0.53 0.24,1.16 -1.11,1.17 -1.23,1.03 -1.45,-1.67 -1.41,1.7 -1.73,1.14 -0.58,-1.02 -1.32,1.07 -2.24,0 -1.96,-2.27 -2.38,1.95 -3.19,0.37 -0.59,-1.16 -1.33,-0.42 -1.35,-0.19 -0.15,1.8 -1.87,-1.44 -2.07,0.09 -0.21,1.64 -1.81,-1.61 -2.45,0.16 -0.64,1.75 -1.03,0.95 -1.69,1.17 -0.41,1.76 -0.29,0.34 -0.57,0.98 -0.1,0.23 -0.18,0.45 -0.25,0.65z"/>
   <path class="fil2" d="M107.14 82.43c-0.12,-1.61 -0.54,-3.24 -0.88,-4.81 -1.16,-0.09 -2.44,0.1 -2,1.42 1.8,0.68 -1.26,3.26 2.61,3.39 0.1,0 0.19,-0 0.27,-0.01z"/>
   <path class="fil2" d="M102.5 85.08c1.05,-1.89 0.98,0.5 1.91,-1.46 0.35,-0.74 3.42,0.61 0.89,1.81 -0.72,0.34 0.41,1.08 -0.84,1.03 -1.34,-0.05 1.87,1.25 -1.92,1.25 0,2.03 0.3,2.06 -1.73,0.89 -0.23,-0.13 0.04,-2.76 0.82,-2.73 0.94,0.03 0.52,-0.16 0.87,-0.79z"/>
   <path class="fil2" d="M90.26 95.83c0.83,0.3 1.9,0.71 3.06,1.15 0.11,-0.13 0.2,-0.29 0.26,-0.48 0.31,-0.11 1.23,0.2 1.19,-0.26 -0.07,-0.88 1.89,-0.2 1.83,-1.52 -0.08,-2.02 0.69,-0.15 2.28,-2.02 0.48,-0.57 0.22,-1.05 0.44,-1.09 1.36,-0.23 0.17,-0.78 0.76,-0.98 1.61,-0.57 -0.03,-1.22 -0.04,-1.22 -0.15,-0.01 -1.66,0.63 -1.72,0.76 -0.61,1.45 -1.88,-0.03 -2.03,0.82 -0.28,1.54 -0.28,0.25 -1.25,0.59 -0.34,1.47 -1.99,1.44 -2.1,1.65 -1.01,1.98 -2.33,-1.01 -2.46,1.4 -0.01,0.12 -0.01,0.26 -0.01,0.42 -0.18,0.31 -0.24,0.52 -0.21,0.79z"/>
   <path class="fil2" d="M105.08 66.3c-0.35,-1.12 -0.84,-2.15 -1.51,-3.45 -1.08,0.34 -2.17,0.21 -1.43,2.02 0.39,0.96 -0.55,-0.37 -0.37,1.78 0.12,1.43 -0.97,1.3 0.1,1.68 0.03,0.01 0.72,1.36 -1.09,1.41 -0.19,0 -0.48,1.88 -1.9,2.18 -0.54,0.11 0.15,0.76 -0.48,2.29 -0.7,1.7 3.95,3.19 3.95,0.1 0,-2.93 1.04,1.01 0.9,-2.69 -0.03,-0.8 1.85,0.96 0.22,-2.29 -0.41,-0.81 1.28,-0.54 1.58,-2.98 0,-0.02 0.01,-0.04 0.03,-0.05z"/>
   <path class="fil2" d="M94.92 81.06c-0.04,-2.01 1.33,0.35 1.5,-1.73 0.07,-0.78 4.09,-1.5 3.39,0.51 -1.43,0.5 -0.58,0.21 -0.58,1.65 -2.04,0.35 -0.36,1.63 -1.94,1.63 -4.74,0 2.21,2.27 -2.24,2.09 -0.27,-0.01 -0.81,1.56 -2.28,1.5 -1.65,-0.07 1.13,2.03 -2.03,1.56 -1.84,-0.27 0.69,0.36 -2.02,1.07 -1.51,0.39 0.51,1.02 -1.26,1.09 -0.58,0.02 0.73,2.01 -3.06,0.86 -0.27,-0.08 -0.74,-1.37 0.31,-1.44 0.5,-0.04 -0.3,-0.95 0.72,-1.05 1.89,-0.19 -0.5,-1.43 3,-0.92 1.51,0.22 -0.79,-1.57 1.71,-1.38 0.68,0.05 0.39,0.85 0.52,-0.91 0.05,-0.65 1.71,0.45 1.71,-0.92 0,-1.39 0.38,0.24 1.32,-1.36 0.38,-0.64 1.06,1.1 0.96,-1.32 -0,-0.03 0.26,-0.82 0.26,-0.95z"/>
   <path class="fil2" d="M100.28 56.12c-0.87,-2.04 -1.48,-3.59 -2.89,-5.83 -2.16,0.37 0.16,1.6 -2.25,1.03 -2.49,-0.59 -0.08,3.28 -1.15,3.23 -3.42,-0.15 0.7,5.11 -1.66,4.01 -0.59,-0.28 -2.03,1.41 -0.8,3.7 0.81,1.51 -2.25,-0.58 -2.55,1.87 -0.56,4.58 -2.21,1.26 -2.84,3.64 -0.34,1.27 2.32,2 -1.34,2.14 -1.51,0.06 1.25,2.76 -1.04,2.66 -0.3,-0.01 -1.51,2.33 -0.09,3.05l0.09 0.17c0.19,0.07 0.89,2.28 2.91,1.25 1.12,-0.57 -0.18,-1.73 1.82,-1.64 0.28,0.01 1.39,-0.57 1.39,-1.44 0,-0.84 -0.82,-2.04 0.93,-2.57 0.17,-0.46 1.42,-0.78 1.04,-1.6 -0.48,-1.06 1.21,-1.08 1.59,-1.77 0.13,-0.25 0.28,-0.07 0.28,-0.48l0.05 -0.24c0.32,-0.32 0.19,-0.95 0.19,-1.39 0,-0.55 1.61,-1.64 1.58,-2.4 -0.13,-3.25 1.33,-2.65 1.3,-3.7 -0.14,-4.34 0.63,-2.57 1.73,-3.24 0.46,-0.28 1.16,-0.19 1.73,-0.45z"/>
   <path class="fil2" d="M71.11 86.94c0.74,0.34 1.52,0.69 2.32,1.06 0.26,-0.81 0.79,-0.21 1.64,-0.23 2.37,-0.08 1.19,-0.71 0.45,-1.25 -1.3,-0.96 2.02,-0.26 2.02,-1.59 0,-1.12 1.91,0.16 0.97,-1.6 -0.99,-1.85 3.6,-0.42 3.7,-1.23 0.23,-1.79 2.18,-0.49 1.65,-1.76 -0.85,-2.08 0.51,-1.09 0.08,-1.73 -0.97,-1.42 -1.69,-0.24 -1.81,-0.24 -2.42,-0.1 -0.19,1.58 -2.02,1.68 -3.15,0.19 -1.33,2.05 -2.79,1.51 -2.54,-0.94 -1.41,1.26 -1.38,1.48 0.18,1.45 -0.81,-0.19 -0.81,1.53 0,1.17 -3.14,-0.28 -3.43,0.95 -0.41,0.14 -0.56,0.76 -0.6,1.44z"/>
   <path class="fil2" d="M91.16 42.16c-0.9,-1.05 -1.79,-2.06 -2.63,-2.96 -1.31,1.3 0.47,1 -2.11,1.2 -0.68,0.05 0.47,2.21 -1.3,1.56 -1.2,-0.44 -1.78,2.11 -0.2,2.99 1.68,0.94 -1.96,1.11 -0.75,3.01 1.88,2.95 -0.38,1.66 -1.2,2.12 -2.24,1.28 0.5,5.61 -2.2,6.16 -0.49,1.43 0.51,3.58 -1.29,4.23 -0.01,0 -0.73,0.88 0.29,1.47 0.61,0.35 -0.52,3.74 1.9,2.68 1.26,-0.55 -0.65,-2.34 1.53,-2.24 1.72,0.07 -0.19,-2.38 1.44,-2.71 2.61,-0.53 0.33,-6.24 1.64,-6.24 1.63,0 -0.34,-2.06 1.18,-2.25 0.05,-0.01 1.05,-2.99 0.38,-3.45 -0.86,-0.59 0.38,-1.01 0.33,-2.16 -0.06,-1.58 2.42,-0.77 2.67,0.3 3.09,0.94 1.16,-1.75 -0.31,-2.03 -1.01,-0.19 -0.21,-0.95 0.63,-1.68z"/>
   <path class="fil2" d="M51.13 18.67c-1.27,0.37 -2.52,-0.66 -2.38,1.83 0.05,0.97 0.86,0.35 0.02,1.65 -0.94,1.48 3.49,3.4 3.62,0.51 0.02,-0.53 -1.32,-0.82 -0.68,-2.38 0.15,-0.36 -0.05,-1.77 -0.58,-1.62z"/>
   <path class="fil2" d="M49.71 25.07c0.37,-0.34 0.29,-0.71 1.48,-0.49 0.78,0.15 0.64,1.1 1.26,1.53 0.29,0.2 -0.3,0.4 -0.3,0.9 0,0.63 0.97,2 -1.45,1.91 -0.36,-0.01 -1.58,-0.68 -0.53,-1.37 0.98,-0.64 0.14,-2.34 -0.06,-1.56 -0.06,0.25 0.29,1.13 -0.48,0.82 -0.09,-0.04 -0.87,-1.15 -0.06,-1.56 0.05,-0.02 0.08,-0.14 0.12,-0.17z"/>
   <path class="fil2" d="M49.49 31.9c-0.51,-0.62 1.65,-1.85 2.53,-0.45 1.27,2.04 -2,1.43 -2.05,1.38 -0.14,-0.14 -0.41,-0.84 -0.48,-0.93z"/>
   <path class="fil2" d="M48.77 34.2c0.12,-0.19 0.28,-0.35 0.46,-0.49 0.51,-0.39 1.21,-0.57 1.75,-0.39 0.9,0.3 2.22,1.35 1.37,2.25 -0.31,0.33 -1.05,-0.2 -1.34,0.2 -0.07,0.1 -1.29,0.46 -1.59,-0.42 -0.1,-0.3 -0.29,-0.41 -0.45,-0.5 -0.51,-0.29 -0.36,-1.13 -0.2,-0.65z"/>
   <path class="fil2" d="M49.33 36.43c0.24,0.01 1.19,-0.32 1.81,-0.04 1.18,0.54 1.62,1.86 -0.14,2.22 -1.02,0.21 0.12,1.61 0.25,2.06 0.23,0.8 -1.2,1.13 -1.46,0.3 -0.13,-0.42 -1.77,0.71 -1.77,-0.16 0,-0.88 0.46,-0.12 -0.2,-0.99 -0.61,-0.82 1.76,-0.73 1.22,-1.61 -0.39,-0.64 -0.55,-0.85 -0.15,-1.62 0.04,-0.08 0.14,0.02 0.24,-0.06l0.2 -0.1z"/>
   <path class="fil2" d="M47.26 43.26c0.39,-0.95 0.09,-0.31 0.19,-0.82 0.23,-1.12 2.77,-0.99 2.63,0.76 -0.04,0.5 -1.59,0.38 -0.76,1.45 0.59,0.75 -0.47,0.89 -0.95,0.89 -1.11,0 -0.02,0.83 -0.53,1.28 -0.22,0.2 -2.05,-0.46 -1.15,0.74 0.01,0.01 1.09,0.4 0.67,1.01 -0.32,0.44 -1.2,0.42 -1.72,0.23 -0.74,-0.27 -1.8,-0.8 -1.28,-1.82 0.19,-0.38 1.65,0.48 1.01,-1.02 -0.43,-1.02 -0.04,-1.55 1.06,-1.09 0.51,0.21 -0.18,-1.34 -0.03,-1.34 0.7,0 0.69,0.13 0.85,-0.26z"/>
   <path class="fil2" d="M23.41 54.24c0.45,0.58 0.93,1.2 1.43,1.87l0.31 0.41c1.43,-0.2 2.89,0.28 3.79,-0.02 1.11,-0.37 -0.57,-1.53 0.3,-1.51 0.7,0.02 0.77,0.35 2.18,0.35 3.22,0 1.94,-0.82 2.01,-1.39 0.01,-0.09 2.2,0.22 2.81,0.22 0.58,0 2.12,-0.27 2.34,-0.65 0.33,-0.57 1.09,-0.53 1.64,-0.97 0.72,-0.58 3.03,-0.56 2.49,-1.6 -0.89,-1.71 -1.62,0.32 -2.4,0.03 -1.14,-0.42 -0.9,0.12 -1.17,0.1 -2,-0.16 -1.82,1.33 -2.22,1.65 -1.48,1.2 -1.82,-1.08 -2.74,-0.73 -1.01,0.39 -0.76,0.03 -2,0.03 -3.1,0 -2.01,1.58 -4.17,1.26 -2.52,-0.37 -3.3,0.86 -4.18,0.91 -0.15,0.01 -0.28,0.02 -0.39,0.03z"/>
   <path class="fil2" d="M56.45 18.74l-0.02 -0.01c-0.73,-0.3 -1.48,-0.61 -2.24,-0.92 -0.07,1.53 0.23,3.8 0.33,3.97 3.33,5.85 -3.23,4.17 1.49,7.08 0.38,0.23 0.85,3.34 0.84,3.35 -0.95,1.89 0.43,0.52 0.43,3.2 -5.42,0 2.25,2.34 0,3.49 -2.27,1.16 -0.73,1.74 -1.33,2.3 -1.31,1.2 1.74,2.91 0.61,2.88 -3.06,-0.07 -0.3,2.79 -1.75,3 -2.67,0.4 -1.56,-0.14 -1.56,2.49 0,0.17 4.91,0.83 3.79,-1.88 -1.01,-2.46 2.65,-1.16 1.76,-2.89 -1.17,-2.29 -0.17,-1.92 0.55,-3.51 1.08,-2.39 -0.26,-3.59 0.21,-4.1 1.07,-1.18 -0.54,-2.76 -0.54,-2.81 -0.2,-1.35 1.02,-0.85 0.2,-4.43 -1.5,-0.31 0.72,-2.06 -0.09,-3.07 -2.36,-2.96 -1.47,-4.52 -1.77,-4.88 -1.27,-1.52 -1.07,-2.39 -0.92,-3.28z"/>
   <path class="fil2" d="M51.23 53.6c1.12,-0.84 -1.98,-1.9 0.82,-2.54 1.15,-0.26 1.24,0.83 1.85,-0.37 0.35,-0.69 2.45,0.46 0.78,0.62 -1,0.09 1.59,0.94 -1.27,2.31 -1.63,0.78 0.9,2.13 -2.18,2.39 -0.29,0.02 -0.06,0.68 -1.24,1.18 -0.13,0.55 -4.22,0.25 -4.21,0.28 0,0.02 -1.98,2.49 -3.45,0.96 -0.59,0.09 -0.72,1.68 -2.61,1.07 -0.02,-0.01 -1.49,1.66 -2.92,0.45 -0.47,-0.39 -0.13,0.1 -1.59,0.29 -0.34,0.04 0.74,0.94 -3.05,0.63 -0.77,-0.06 -2.78,-2.56 -0.66,-2.49 1.45,0.04 -1.16,-1.75 2.73,-0.53 1.56,0.48 0.01,-0.79 2.28,-0.1 0.76,0.23 0.61,-1.26 1.71,0.04 0.53,0.62 1.83,-0.03 2.39,-1.04 0.45,-0.8 3.57,0.45 3.65,-0.98 0.02,-0.46 1.22,-0.94 2.01,-0.43 1.34,0.86 0.63,-0.98 2.38,-0.35 0.84,0.31 -0.65,-0.61 1.42,-0.55 -0.34,-1.08 0.64,-0.44 1.15,-0.82z"/>
   <path class="fil2" d="M68.05 24.15c-0.83,-0.43 -1.68,-0.85 -2.52,-1.27 -0.22,0.32 -0.48,0.59 -0.93,0.58 -1.94,-0.05 -0.2,2.95 0.23,3.28 4.61,3.61 -0.74,1.87 1.88,3.83 1.75,1.31 0.48,1.46 1.16,1.82 2.72,1.44 0.89,-4.56 0.22,-5.46 -2.43,-3.25 -1.2,-1.67 -0.03,-2.78z"/>
   <path class="fil2" d="M66.72 37.05c-1.67,-0.84 0.13,-2 -0.69,-3.35 -0.27,-0.45 0.05,-2.05 1.8,-0.22 0.56,0.59 1.37,-1.41 1.26,1.85 -0.02,0.46 0.84,1.23 -0.42,1.52 -0.34,0.08 0.39,1.81 -1.2,1.25 -0.37,-0.13 0.24,-0.54 -0.75,-1.04z"/>
   <path class="fil2" d="M65.55 42.37c0,-1.28 0.53,0.51 0.18,-1.62 -0.08,-0.45 0.42,0.31 0.54,-0.66 0.22,-1.76 2.96,-0.44 2.13,0.85 -0.22,0.35 -0.2,2.7 -0.06,2.99 0.28,0.57 0.18,2.01 -0.67,2.3 -1.15,0.4 0.04,2.19 0.04,3.77 0,1.97 -1.85,1.36 -2.96,0.66 -1.75,-1.12 -0.97,-1.02 -0.89,-2.16 0.07,-0.95 3.58,2.03 2.03,-0.3 -0.95,-1.43 -1.13,-0.16 -1.13,-3.13 0,-1.22 0.18,-0.55 0.73,-1.08 -0.04,-0.26 0.02,-1.09 0.17,-1.27l-0.12 -0.36z"/>
   <path class="fil2" d="M60.56 53.3c-0.29,-1.23 1.02,-1.22 1.6,-0.18 0.14,0.26 2.55,2.68 0.83,-0.54 -0.59,-1.1 0.89,-1.3 1.62,-0.17 0.35,0.55 2.49,-0.37 1.85,2.04 -0.25,0.94 -1.86,-0.62 -1.86,1.08 0,1.1 -2.35,1.47 -2.4,0 -0.01,-0.25 -1.41,-1.3 -1.63,-2.22z"/>
   <path class="fil2" d="M37.25 67.65c1.16,0.93 2.51,2.01 3.94,3.14 1.2,-1.32 2.95,0.25 2.85,-0.96 -0.05,-0.58 1.08,-1.5 1.09,-1.5 2.37,1 2.2,-1.09 1.86,-1.16 -0.23,-0.66 3.5,-0.82 3.83,-0.53 0.73,0.64 4.38,-1.07 4.38,-1.69 0,-1.37 0.13,-0.66 0.3,-1.14 0.1,-0.02 3.39,-2.11 3.58,-2.47 0.81,-1.49 2.32,-1.64 2.37,-2.09 0.21,-1.86 1.46,-0.26 0.49,-2.64 -0.12,-0.3 -2.9,-0.28 -3.07,0.15 -0.38,0.96 -2,0.55 -1.39,1.91l0.16 0.02c1.15,0.93 -0.41,0.46 -1.13,1.14 0.17,1.06 -1.77,0.46 -1.96,0.91 -0.48,1.12 -2.05,-0.65 -2.05,1.02 0,0.37 -2.36,0.46 -2.89,0.54 -1.08,0.16 -1.9,-0.44 -1.98,0.12 -0.09,0.64 -0.5,0.04 -0.78,0 -1.43,-0.2 0.68,2.19 -0.9,1.99 -2.2,-0.27 -1.23,0.1 -1.92,0.55 -1.84,-0.73 -0.92,1.23 -2.15,0.58 -1.61,-0.85 -0.78,0.27 -0.74,1.22 0.06,1.3 -2.25,-1.7 -2.27,-1.71 -3.51,-2.46 -0.84,1.63 -1.59,2.53 -0.02,0.02 -0.04,0.04 -0.05,0.07z"/>
   <path class="fil2" d="M79.99 31.93c-1.35,-1.04 -2.7,-2.04 -3.93,-2.93 -0.86,0.71 -2.07,2.83 -2.07,4.03 0,3.3 0.94,0.73 0.64,3.35 -0.05,0.41 2.69,0.67 0.35,2.31 -0.46,0.33 -1.42,2.86 -0.09,3.54 0.84,0.43 -2.17,3.24 -0.83,3.75 0.33,0.13 0.38,1.5 -0.3,1.86 -1.71,0.92 0.94,0.6 -0.92,2.67 -0.78,0.87 2.42,2.64 0.35,2.44 -0.01,-0.03 -1.27,1.53 -0.58,2.36 0.67,0.8 -0.89,1.02 -0.89,1.03 0.98,1.7 -0.87,0.66 -0.63,2.02 -0.91,0.99 -0.17,0.27 -0.71,1.2 -0.46,0.79 -2.78,0.43 -2.85,1.79 -0.12,2.59 -0.73,1.36 -1.82,3.83 -1.19,2.69 -3.83,0.39 -4.74,2.22 -1.12,2.27 -4.48,0.93 -5.09,1.66 -0.88,1.06 0.25,0.84 0.43,0.84 3.51,0 -1.1,1.58 -2.13,1.2 -1.1,-0.41 -3.68,0.94 -4.1,1.47 -1.22,1.56 -0.66,0.39 -1.6,1.07 0.23,1.78 0.58,3.77 3.06,3.77 0.63,0 3.12,-3.1 2.69,-3.8 -1.42,-2.27 1.65,-0.4 1.59,-1.62 -0.04,-1.02 4.24,-0.96 4.91,-1.47 4.87,1.46 2.6,-1.26 3.67,-1.54 3.4,-0.9 2.21,-1.19 3.69,-2.06 2.77,-1.61 1.43,-3.76 2.26,-3.82 2.22,-0.16 1.79,-2.17 2.42,-2.91 2.12,-2.46 0.65,-1.78 1.45,-2.9 -0.09,-0.06 -0.31,-0.2 -0.09,-0.31 2.54,-1.29 -0.18,-1.91 1.06,-2.74 1.84,-1.22 -0.96,-2.58 0.62,-4.42 1.35,-1.57 -0.2,-4.14 0.26,-4.65 1.44,-1.6 -0.23,-1.94 0.34,-3.11 1.71,-3.46 -0.55,-2.37 0,-3.51 0.81,-1.7 1.49,0.75 0.54,-2.27 1.23,-1.89 -1.06,-1.43 0.52,-3.55 1.03,-1.38 1.92,-0.15 2.51,-0.83z"/>
   <path class="fil2" d="M61.4 81.28c0.18,-2.16 1.07,-0.42 2.72,-2.46 0.5,-0.63 1.63,1 2.03,-0.97 0.05,-0.24 1.07,-1.81 1.24,-1.89 0.32,-0.17 2.14,-0.6 2.39,-0.56 2.73,0.34 -1.14,-1.48 0.56,-2.61 0.68,-0.46 1.01,0.62 2.85,0.62 1.55,0 0.49,-2.27 2.46,-1.45 1,0.41 0.01,-2.01 1.03,-1.97 3.09,0.12 0.77,-2.16 2.54,-2.52 0.99,-0.2 2.32,0.46 2.32,1.36 -0.05,0 -0.96,0.24 -1.08,0.29 -0.18,0.53 0.26,1.19 0.26,1.56 -0.85,0 -3.09,1.04 -2.34,2.25 0.86,1.4 -4.57,2.9 -5.74,2.88 -2.06,-0.05 2.43,1.76 -0.4,1.91 -0.37,0.02 -3.45,1.66 -3.69,3.02 -0.26,1.48 -2.25,1.03 -2.79,2.39 -0.27,0.69 -2.84,-0.53 -3.4,-0.15 -0.24,0.16 -0.42,0.12 -0.57,-0.02 -0.8,-0.75 -0.47,-0.83 -0.4,-1.66z"/>
  </g>
 </g>
</svg>
